<mxfile host="app.diagrams.net" modified="2024-07-02T00:12:31.535Z" agent="Mozilla/5.0 (Windows NT 10.0; Win64; x64) AppleWebKit/537.36 (KHTML, like Gecko) Chrome/126.0.0.0 Safari/537.36" etag="QPHjpbSDGmi2xQgrPNTV" version="24.6.4" type="device">
  <diagram name="Page-1" id="6fnXqADSSy7HgsGIOQ16">
    <mxGraphModel dx="1099" dy="980" grid="1" gridSize="10" guides="1" tooltips="1" connect="1" arrows="1" fold="1" page="1" pageScale="1" pageWidth="850" pageHeight="1100" math="0" shadow="0">
      <root>
        <mxCell id="0" />
        <mxCell id="1" parent="0" />
        <mxCell id="raUnV5MNKTT7ziLn-BE--1" value="module unit&lt;div&gt;include &quot;&lt;b&gt;module&lt;/b&gt;&quot;&lt;/div&gt;" style="rounded=0;whiteSpace=wrap;html=1;fontSize=14;" vertex="1" parent="1">
          <mxGeometry x="310" y="180" width="120" height="50" as="geometry" />
        </mxCell>
        <mxCell id="raUnV5MNKTT7ziLn-BE--2" value="module interface unit&lt;div&gt;include &quot;&lt;b&gt;export&lt;/b&gt;&quot;&lt;/div&gt;" style="rounded=0;whiteSpace=wrap;html=1;fontSize=14;" vertex="1" parent="1">
          <mxGeometry x="100" y="270" width="160" height="50" as="geometry" />
        </mxCell>
        <mxCell id="raUnV5MNKTT7ziLn-BE--3" value="module implementation unit&lt;div&gt;no &quot;&lt;b&gt;export&lt;/b&gt;&quot;&lt;/div&gt;" style="rounded=0;whiteSpace=wrap;html=1;fontSize=14;" vertex="1" parent="1">
          <mxGeometry x="280" y="270" width="190" height="50" as="geometry" />
        </mxCell>
        <mxCell id="raUnV5MNKTT7ziLn-BE--4" value="module partition interface unit&lt;div&gt;include &quot;&lt;b&gt;export&lt;/b&gt;&quot;&lt;/div&gt;" style="rounded=0;whiteSpace=wrap;html=1;fontSize=14;" vertex="1" parent="1">
          <mxGeometry x="330" y="340" width="210" height="50" as="geometry" />
        </mxCell>
        <mxCell id="raUnV5MNKTT7ziLn-BE--5" value="module partition implementation unit&lt;div&gt;no &quot;&lt;b&gt;export&lt;/b&gt;&quot;&lt;/div&gt;" style="rounded=0;whiteSpace=wrap;html=1;fontSize=14;" vertex="1" parent="1">
          <mxGeometry x="550" y="340" width="230" height="50" as="geometry" />
        </mxCell>
        <mxCell id="raUnV5MNKTT7ziLn-BE--6" value="module partition unit&lt;div&gt;include &quot;&lt;b&gt;:&lt;/b&gt;&quot;&lt;/div&gt;" style="rounded=0;whiteSpace=wrap;html=1;fontSize=14;" vertex="1" parent="1">
          <mxGeometry x="490" y="270" width="160" height="50" as="geometry" />
        </mxCell>
        <mxCell id="raUnV5MNKTT7ziLn-BE--8" value="" style="endArrow=classic;html=1;rounded=0;entryX=0.5;entryY=0;entryDx=0;entryDy=0;" edge="1" parent="1" target="raUnV5MNKTT7ziLn-BE--2">
          <mxGeometry width="50" height="50" relative="1" as="geometry">
            <mxPoint x="370" y="230" as="sourcePoint" />
            <mxPoint x="400" y="360" as="targetPoint" />
          </mxGeometry>
        </mxCell>
        <mxCell id="raUnV5MNKTT7ziLn-BE--9" value="" style="endArrow=classic;html=1;rounded=0;exitX=0.5;exitY=1;exitDx=0;exitDy=0;" edge="1" parent="1" source="raUnV5MNKTT7ziLn-BE--1" target="raUnV5MNKTT7ziLn-BE--3">
          <mxGeometry width="50" height="50" relative="1" as="geometry">
            <mxPoint x="380" y="240" as="sourcePoint" />
            <mxPoint x="230" y="290" as="targetPoint" />
          </mxGeometry>
        </mxCell>
        <mxCell id="raUnV5MNKTT7ziLn-BE--10" value="" style="endArrow=classic;html=1;rounded=0;exitX=0.5;exitY=1;exitDx=0;exitDy=0;" edge="1" parent="1" source="raUnV5MNKTT7ziLn-BE--1" target="raUnV5MNKTT7ziLn-BE--6">
          <mxGeometry width="50" height="50" relative="1" as="geometry">
            <mxPoint x="390" y="250" as="sourcePoint" />
            <mxPoint x="240" y="300" as="targetPoint" />
          </mxGeometry>
        </mxCell>
        <mxCell id="raUnV5MNKTT7ziLn-BE--11" value="" style="endArrow=classic;html=1;rounded=0;entryX=0.5;entryY=0;entryDx=0;entryDy=0;exitX=0.5;exitY=1;exitDx=0;exitDy=0;" edge="1" parent="1" source="raUnV5MNKTT7ziLn-BE--6" target="raUnV5MNKTT7ziLn-BE--4">
          <mxGeometry width="50" height="50" relative="1" as="geometry">
            <mxPoint x="400" y="260" as="sourcePoint" />
            <mxPoint x="250" y="310" as="targetPoint" />
          </mxGeometry>
        </mxCell>
        <mxCell id="raUnV5MNKTT7ziLn-BE--12" value="" style="endArrow=classic;html=1;rounded=0;entryX=0.567;entryY=0;entryDx=0;entryDy=0;exitX=0.5;exitY=1;exitDx=0;exitDy=0;entryPerimeter=0;" edge="1" parent="1" source="raUnV5MNKTT7ziLn-BE--6" target="raUnV5MNKTT7ziLn-BE--5">
          <mxGeometry width="50" height="50" relative="1" as="geometry">
            <mxPoint x="410" y="270" as="sourcePoint" />
            <mxPoint x="260" y="320" as="targetPoint" />
          </mxGeometry>
        </mxCell>
      </root>
    </mxGraphModel>
  </diagram>
</mxfile>
